# xmcd
#
# Track frame offsets:
# 150
# 28114
# 54525
# 73557
# 96000
# 121379
# 125598
# 142728
# 158190
# 187268
# 207032
#
# Disc length: 3087 seconds
#
#
# Revision: 0
# Processed by: cddbd v1.5.1PL0 Copyright (c) Steve Scherf et al.
# Submitted via: FreeRIP 2.51 
#
DISCID=9b0c0d0b
DTITLE=Daniel Lee - Genrecide
DYEAR=2005
DGENRE=Avantgarde
TTITLE0=Proof
TTITLE1=Those Things We Just Can't Say
TTITLE2=Notes and Flams, Beats and Jams
TTITLE3=Sitting on Sides in the Eve of Decision
TTITLE4=Dangling
TTITLE5=Coffee Break
TTITLE6=You Just Have To Ask
TTITLE7=Lay Down
TTITLE8=Us, Therein Potential
TTITLE9=Meditation in F Minor
TTITLE10=Relentless
EXTD=\n
EXTT0=
EXTT1=
EXTT2=
EXTT3=
EXTT4=
EXTT5=
EXTT6=
EXTT7=
EXTT8=
EXTT9=
EXTT10=
PLAYORDER=
